<svg viewBox="0 0 24 24" fill="none" xmlns="http://www.w3.org/2000/svg"><path d="M1 11V17C1 18.6569 2.34315 20 4 20H20C21.6569 20 23 18.6569 23 17V11" stroke="#4F4F4F" stroke-width="2" stroke-linecap="round" stroke-linejoin="round"></path><path fill-rule="evenodd" clip-rule="evenodd" d="M13 2C13 1.44772 12.5523 1 12 1C11.4477 1 11 1.44772 11 2L11 12.3765L8.7328 9.93493C8.357 9.53022 7.72426 9.50679 7.31955 9.88259C6.91484 10.2584 6.89141 10.8911 7.26721 11.2958L11.2672 15.6035C11.4564 15.8073 11.7219 15.9231 12 15.9231C12.2781 15.9231 12.5436 15.8073 12.7328 15.6035L16.7328 11.2958C17.1086 10.8911 17.0852 10.2584 16.6805 9.88259C16.2757 9.50679 15.643 9.53022 15.2672 9.93493L13 12.3765L13 2Z" fill="#4F4F4F"></path></svg>